<svg id="wave" style="transform:rotate(0deg); transition: 0.3s" viewBox="0 0 1440 490" version="1.1" xmlns="http://www.w3.org/2000/svg"><defs><linearGradient id="sw-gradient-0" x1="0" x2="0" y1="1" y2="0"><stop stop-color="rgba(36, 6, 30, 1)" offset="0%"></stop><stop stop-color="rgba(122, 23, 121, 1)" offset="100%"></stop></linearGradient></defs><path style="transform:translate(0, 0px); opacity:1" fill="url(#sw-gradient-0)" d="M0,245L17.1,236.8C34.3,229,69,212,103,228.7C137.1,245,171,294,206,269.5C240,245,274,147,309,114.3C342.9,82,377,114,411,122.5C445.7,131,480,114,514,155.2C548.6,196,583,294,617,294C651.4,294,686,196,720,171.5C754.3,147,789,196,823,236.8C857.1,278,891,310,926,269.5C960,229,994,114,1029,122.5C1062.9,131,1097,261,1131,310.3C1165.7,359,1200,327,1234,285.8C1268.6,245,1303,196,1337,171.5C1371.4,147,1406,147,1440,147C1474.3,147,1509,147,1543,130.7C1577.1,114,1611,82,1646,130.7C1680,180,1714,310,1749,359.3C1782.9,408,1817,376,1851,326.7C1885.7,278,1920,212,1954,179.7C1988.6,147,2023,147,2057,179.7C2091.4,212,2126,278,2160,318.5C2194.3,359,2229,376,2263,359.3C2297.1,343,2331,294,2366,294C2400,294,2434,343,2451,367.5L2468.6,392L2468.6,490L2451.4,490C2434.3,490,2400,490,2366,490C2331.4,490,2297,490,2263,490C2228.6,490,2194,490,2160,490C2125.7,490,2091,490,2057,490C2022.9,490,1989,490,1954,490C1920,490,1886,490,1851,490C1817.1,490,1783,490,1749,490C1714.3,490,1680,490,1646,490C1611.4,490,1577,490,1543,490C1508.6,490,1474,490,1440,490C1405.7,490,1371,490,1337,490C1302.9,490,1269,490,1234,490C1200,490,1166,490,1131,490C1097.1,490,1063,490,1029,490C994.3,490,960,490,926,490C891.4,490,857,490,823,490C788.6,490,754,490,720,490C685.7,490,651,490,617,490C582.9,490,549,490,514,490C480,490,446,490,411,490C377.1,490,343,490,309,490C274.3,490,240,490,206,490C171.4,490,137,490,103,490C68.6,490,34,490,17,490L0,490Z"></path><defs><linearGradient id="sw-gradient-1" x1="0" x2="0" y1="1" y2="0"><stop stop-color="rgba(36, 6, 30, 1)" offset="0%"></stop><stop stop-color="rgba(93, 18, 91, 1)" offset="100%"></stop></linearGradient></defs><path style="transform:translate(0, 50px); opacity:0.9" fill="url(#sw-gradient-1)" d="M0,0L17.1,73.5C34.3,147,69,294,103,334.8C137.1,376,171,310,206,245C240,180,274,114,309,114.3C342.9,114,377,180,411,220.5C445.7,261,480,278,514,253.2C548.6,229,583,163,617,147C651.4,131,686,163,720,163.3C754.3,163,789,131,823,155.2C857.1,180,891,261,926,253.2C960,245,994,147,1029,89.8C1062.9,33,1097,16,1131,81.7C1165.7,147,1200,294,1234,343C1268.6,392,1303,343,1337,269.5C1371.4,196,1406,98,1440,106.2C1474.3,114,1509,229,1543,245C1577.1,261,1611,180,1646,138.8C1680,98,1714,98,1749,147C1782.9,196,1817,294,1851,277.7C1885.7,261,1920,131,1954,122.5C1988.6,114,2023,229,2057,269.5C2091.4,310,2126,278,2160,269.5C2194.3,261,2229,278,2263,310.3C2297.1,343,2331,392,2366,343C2400,294,2434,147,2451,73.5L2468.6,0L2468.6,490L2451.4,490C2434.3,490,2400,490,2366,490C2331.4,490,2297,490,2263,490C2228.6,490,2194,490,2160,490C2125.7,490,2091,490,2057,490C2022.9,490,1989,490,1954,490C1920,490,1886,490,1851,490C1817.1,490,1783,490,1749,490C1714.3,490,1680,490,1646,490C1611.4,490,1577,490,1543,490C1508.6,490,1474,490,1440,490C1405.7,490,1371,490,1337,490C1302.9,490,1269,490,1234,490C1200,490,1166,490,1131,490C1097.1,490,1063,490,1029,490C994.3,490,960,490,926,490C891.4,490,857,490,823,490C788.6,490,754,490,720,490C685.7,490,651,490,617,490C582.9,490,549,490,514,490C480,490,446,490,411,490C377.1,490,343,490,309,490C274.3,490,240,490,206,490C171.4,490,137,490,103,490C68.6,490,34,490,17,490L0,490Z"></path></svg>